<?xml version="1.0" encoding="UTF-8"?>
<svg id="Layer_1" xmlns="http://www.w3.org/2000/svg" version="1.1" viewBox="0 0 1057.3 595.3">
  <!-- Generator: Adobe Illustrator 29.5.1, SVG Export Plug-In . SVG Version: 2.1.0 Build 141)  -->
  <defs>
    <style>
      .st0 {
        fill: #00896b;
      }
    </style>
  </defs>
  <polygon class="st0" points="464.7 269.6 406.9 269.6 406.9 219.8 386.3 219.8 386.3 341.6 406.9 341.6 406.9 288.4 464.7 288.4 464.7 341.5 485.2 341.5 485.2 219.8 464.7 219.8 464.7 269.6"/>
  <path class="st0" d="M568.8,265.3c-4-6.1-13.3-13.6-27.7-13.6-21.1,0-41.4,16.4-41.4,45.7s20.3,45.7,41.4,45.7,23.7-7.4,27.7-13.6v12h20v-88.2h-20v12ZM544.7,324.3c-12.4,0-24.4-9.4-24.4-26.9s12-27,24.4-27,24.3,9.5,24.3,27-12,26.9-24.3,26.9Z"/>
  <path class="st0" d="M627.3,313.7v-93.9h-20v96.5c0,16.9,7.6,26.7,23.9,26.7,3.4,0,6.7-.5,9.9-1.5v-18c-1.6.5-3.3.7-4.9.7-5.4,0-8.9-3.6-8.9-10.6Z"/>
  <path class="st0" d="M687.8,315.3l-23.3-62.1h-21.3l33.7,84.7-.9,2.4c-3.6,9.9-9.8,11.9-14.7,11.9-1.9,0-3.8-.2-5.7-.6v17.9c3.3,1.2,6.7,1.6,10.1,1.6,16.3,0,24.3-10.8,31.2-28.5l34.6-89.3h-21.1l-22.5,62.1Z"/>
  <polygon class="st0" points="783.6 293.8 820.8 253.2 797.5 253.2 764.3 289.7 764.3 219.8 744.4 219.8 744.4 341.5 764.3 341.5 764.3 300 800 341.5 823.9 341.5 783.6 293.8"/>
  <path class="st0" d="M328.5,252.2c2.1-6.1,3.2-12.9,3.2-20.5h0c0-3.2-1.2-6.2-3.5-8.4-2.3-2.3-5.2-3.5-8.4-3.5h-23.8l-16.8-16.8c-2.3-2.3-5.2-3.5-8.4-3.5s-6.2,1.2-8.4,3.5l-16.8,16.8h-23.7c-3.2,0-6.2,1.2-8.4,3.5s-3.5,5.2-3.5,8.4v23.7l-16.8,16.8c-4.6,4.6-4.6,12.2,0,16.9l20,20c-2.1,6.1-3.2,12.9-3.2,20.5h0c0,3.2,1.2,6.2,3.5,8.4,2.3,2.3,5.2,3.5,8.4,3.5h23.8l16.8,16.8c2.3,2.3,5.2,3.5,8.4,3.5s6.2-1.2,8.4-3.5l16.8-16.8h23.7c3.2,0,6.2-1.2,8.4-3.5,2.3-2.3,3.5-5.2,3.5-8.4v-23.7l16.8-16.8c4.6-4.6,4.6-12.2,0-16.9l-20-20ZM216.4,302l-18.1-18.1c-1.8-1.8-1.8-4.7,0-6.5l69.3-69.3c.9-.9,2-1.3,3.2-1.3,1.2,0,2.4.5,3.2,1.3l17.2,17.2c16.7,17.3,12.7,51.3-20.4,51.3h0c-27,0-45.4,9.1-54.4,25.3ZM343.3,283.9l-69.3,69.3c-.9.9-2,1.3-3.2,1.3-1.2,0-2.4-.5-3.2-1.3l-17.2-17.2c-16.7-17.3-12.7-51.3,20.4-51.3h0c27,0,45.4-9.1,54.4-25.3l18.1,18.1c1.8,1.8,1.8,4.7,0,6.5Z"/>
</svg>