<?xml version="1.0" encoding="UTF-8"?>
<svg id="Layer_1" xmlns="http://www.w3.org/2000/svg" version="1.1" viewBox="0 0 1057.3 595.3">
  <!-- Generator: Adobe Illustrator 29.8.1, SVG Export Plug-In . SVG Version: 2.1.1 Build 2)  -->
  <defs>
    <style>
      .st0 {
        fill: #fff;
      }
    </style>
  </defs>
  <polygon class="st0" points="468.71 264.96 386.46 264.96 386.46 194.1 357.15 194.1 357.15 367.41 386.46 367.41 386.46 291.71 468.71 291.71 468.71 367.27 497.88 367.27 497.88 194.1 468.71 194.1 468.71 264.96"/>
  <path class="st0" d="M616.84,258.84c-5.69-8.68-18.92-19.35-39.42-19.35-30.02,0-58.91,23.34-58.91,65.03s28.89,65.03,58.91,65.03,33.72-10.53,39.42-19.35v17.08h28.46v-125.5h-28.46v17.08ZM582.54,342.79c-17.64,0-34.72-13.38-34.72-38.28s17.08-38.42,34.72-38.42,34.58,13.52,34.58,38.42-17.08,38.28-34.58,38.28Z"/>
  <path class="st0" d="M700.08,327.71v-133.61h-28.46v137.31c0,24.05,10.81,37.99,34.01,37.99,4.84,0,9.53-.71,14.09-2.13v-25.61c-2.28.71-4.7,1-6.97,1-7.68,0-12.66-5.12-12.66-15.08v.14Z"/>
  <path class="st0" d="M786.16,329.99l-33.15-88.36h-30.31l47.95,120.52-1.28,3.42c-5.12,14.09-13.94,16.93-20.92,16.93-2.7,0-5.41-.28-8.11-.85v25.47c4.7,1.71,9.53,2.28,14.37,2.28,23.19,0,34.58-15.37,44.4-40.55l49.23-127.07h-30.02l-32.02,88.36-.14-.14Z"/>
  <polygon class="st0" points="922.48 299.39 975.41 241.62 942.26 241.62 895.02 293.56 895.02 194.1 866.7 194.1 866.7 367.27 895.02 367.27 895.02 308.22 945.82 367.27 979.82 367.27 922.48 299.39"/>
  <path class="st0" d="M274.91,240.2c2.99-8.68,4.55-18.36,4.55-29.17h0c0-4.55-1.71-8.82-4.98-11.95-3.27-3.27-7.4-4.98-11.95-4.98h-33.87l-23.91-23.91c-3.27-3.27-7.4-4.98-11.95-4.98s-8.82,1.71-11.95,4.98l-23.91,23.91h-33.72c-4.55,0-8.82,1.71-11.95,4.98s-4.98,7.4-4.98,11.95v33.72l-23.91,23.91c-6.55,6.55-6.55,17.36,0,24.05l28.46,28.46c-2.99,8.68-4.55,18.36-4.55,29.17h0c0,4.55,1.71,8.82,4.98,11.95,3.27,3.27,7.4,4.98,11.95,4.98h33.87l23.91,23.91c3.27,3.27,7.4,4.98,11.95,4.98s8.82-1.71,11.95-4.98l23.91-23.91h33.72c4.55,0,8.82-1.71,11.95-4.98,3.27-3.27,4.98-7.4,4.98-11.95v-33.72l23.91-23.91c6.55-6.55,6.55-17.36,0-24.05l-28.46-28.46h0ZM115.4,311.06l-25.76-25.76c-2.56-2.56-2.56-6.69,0-9.25l98.61-98.61c1.28-1.28,2.85-1.85,4.55-1.85s3.42.71,4.55,1.85l24.47,24.47c23.76,24.62,18.07,73-29.03,73h0c-38.42,0-64.6,12.95-77.41,36v.14ZM295.97,285.31l-98.61,98.61c-1.28,1.28-2.85,1.85-4.55,1.85s-3.42-.71-4.55-1.85l-24.47-24.47c-23.76-24.62-18.07-73,29.03-73h0c38.42,0,64.6-12.95,77.41-36l25.76,25.76c2.56,2.56,2.56,6.69,0,9.25v-.14Z"/>
</svg>